<?xml version="1.0" encoding="utf-8"?>
<!-- Generator: Adobe Illustrator 27.5.0, SVG Export Plug-In . SVG Version: 6.00 Build 0)  -->
<svg version="1.1" id="Layer_1" xmlns:xodm="http://www.corel.com/coreldraw/odm/2003"
	 xmlns="http://www.w3.org/2000/svg" xmlns:xlink="http://www.w3.org/1999/xlink" x="0px" y="0px" viewBox="0 0 7000 4000"
	 style="enable-background:new 0 0 7000 4000;" xml:space="preserve">
<g id="Layer_x5F_1">
	<g id="_2526765437968">
		<rect style="fill-rule:evenodd;clip-rule:evenodd;fill:#01052D;" width="7000" height="4000"/>
		
			<linearGradient id="SVGID_1_" gradientUnits="userSpaceOnUse" x1="2540.5439" y1="2540.3511" x2="2541.5186" y2="2541.5459" gradientTransform="matrix(7000.0005 0 0 -3252.5024 -17784460 8266329.5)">
			<stop  offset="0" style="stop-color:#1A85F8"/>
			<stop  offset="1" style="stop-color:#FFFFFF"/>
		</linearGradient>
		<path style="fill-rule:evenodd;clip-rule:evenodd;fill:url(#SVGID_1_);" d="M7000,1860.71v142.51
			c-377.12,456.21-808.17,819.33-1246.66,1074.71c-392.34,228.5-791.09,371.14-1163.17,417.51
			c-375.36,46.78-724.1-4.26-1012.89-163.64c-445.16-245.68-745.1-746.19-776.98-1539.24
			c-22.78-566.84-179.99-1063.9-631.13-1297.91C1747.42,275.89,1067.54,280.98,0,661.51V566.3
			c1077.39-379.15,1772.03-378.79,2210.3-151.45c486.56,252.38,655.66,777.5,679.65,1374.19
			c30.45,757.61,312.42,1233.23,730.58,1464.01c271.56,149.87,601.74,197.59,958.74,153.09
			c360.26-44.89,747.31-183.56,1129.07-405.91C6165.32,2734.08,6614.021,2348.45,7000,1860.71L7000,1860.71z"/>
		
			<linearGradient id="SVGID_00000017517642851053625860000001790238401591351435_" gradientUnits="userSpaceOnUse" x1="211.613" y1="-201.4735" x2="7035.0547" y2="3944.3413" gradientTransform="matrix(1 0 0 -1 0 4002)">
			<stop  offset="0" style="stop-color:#1A85F8"/>
			<stop  offset="1" style="stop-color:#FFFFFF"/>
		</linearGradient>
		<path style="fill-rule:evenodd;clip-rule:evenodd;fill:url(#SVGID_00000017517642851053625860000001790238401591351435_);" d="
			M7000,2695.52v145.07C6601.07,3335.7,6125.56,3726.46,5631.85,4000H5439.7c15.82-7.94,31.64-15.99,47.43-24.18
			C6036.601,3690.98,6568.37,3258.07,7000,2695.52L7000,2695.52z M2882.74,4000h-134.2c-308.99-298.76-506.33-746.71-530.86-1357.12
			c-22.79-566.84-179.99-1063.9-631.13-1297.91C1247.25,1168.98,740.84,1137.92,0,1330.6v-92.39
			c753.66-192.14,1274.09-156.45,1627.68,26.96c486.56,252.38,655.66,777.49,679.65,1374.19
			C2332.68,3270.1,2548.81,3718.16,2882.74,4000L2882.74,4000z"/>
		
			<linearGradient id="SVGID_00000101089312860237657330000016529661920837206929_" gradientUnits="userSpaceOnUse" x1="532.9231" y1="-730.306" x2="7356.3628" y2="3415.5073" gradientTransform="matrix(1 0 0 -1 0 4002)">
			<stop  offset="0" style="stop-color:#1A85F8"/>
			<stop  offset="1" style="stop-color:#FFFFFF"/>
		</linearGradient>
		<path style="fill-rule:evenodd;clip-rule:evenodd;fill:url(#SVGID_00000101089312860237657330000016529661920837206929_);" d="
			M7000,3637.98v141.89c-63.51,75.89-129.14,149.28-196.69,220.13h-125.18C6790.8,3886.25,6898.47,3765.56,7000,3637.98z
			 M1799.33,4000h-92.84c-39.56-155.36-64.09-324.1-71.44-506.81c-22.78-566.83-179.98-1063.89-631.13-1297.9
			C762.21,2069.91,435.67,2018.1,0,2068.31v-89.69c450.87-50.42,791.03,5.1,1045.05,136.86
			c486.56,252.38,655.66,777.5,679.65,1374.2C1732.14,3674.66,1757.76,3844.58,1799.33,4000L1799.33,4000z"/>
		
			<linearGradient id="SVGID_00000085251843476623985010000012875536972758235066_" gradientUnits="userSpaceOnUse" x1="-46.2957" y1="223.0098" x2="6777.1094" y2="4368.8022" gradientTransform="matrix(1 0 0 -1 0 4002)">
			<stop  offset="0" style="stop-color:#1A85F8"/>
			<stop  offset="1" style="stop-color:#FFFFFF"/>
		</linearGradient>
		<path style="fill-rule:evenodd;clip-rule:evenodd;fill:url(#SVGID_00000085251843476623985010000012875536972758235066_);" d="
			M1110.09,4000h-90.89c-67.87-419.05-240.77-769.15-597.9-954.4C302.38,2983.92,162.87,2940.08,0,2917.39v-90.14
			c179.01,23.45,332.08,70.94,462.43,138.55C853.93,3168.88,1039.87,3548.55,1110.09,4000L1110.09,4000z"/>
		
			<linearGradient id="SVGID_00000088824731378055234480000001289233690894830467_" gradientUnits="userSpaceOnUse" x1="2540.1519" y1="2540.5991" x2="2541.1267" y2="2541.7939" gradientTransform="matrix(3758.98 0 0 -2308.2866 -9545786 5866817.5)">
			<stop  offset="0" style="stop-color:#1A85F8"/>
			<stop  offset="1" style="stop-color:#FFFFFF"/>
		</linearGradient>
		<path style="fill-rule:evenodd;clip-rule:evenodd;fill:url(#SVGID_00000088824731378055234480000001289233690894830467_);" d="
			M3465.8,0c220.2,135.97,305.72,391.83,292.51,873.08c-36.75,1338.45,711.89,1700.04,1867.31,997.51
			c475-288.82,976.7-764.81,1374.38-1354.13v156.37c-392.81,551.86-872.25,997.52-1327.63,1274.4
			c-1189.4,723.2-2048.93,356.27-2003.98-1067.49C3686.04,320.55,3568.64,92.78,3241.02,0L3465.8,0L3465.8,0z"/>
		
			<linearGradient id="SVGID_00000104668267343219906130000012985435958414202553_" gradientUnits="userSpaceOnUse" x1="2539.7102" y1="2541.1858" x2="2540.6851" y2="2542.3806" gradientTransform="matrix(2330.8999 0 0 -1220.6479 -5915951 3103127.75)">
			<stop  offset="0" style="stop-color:#1A85F8"/>
			<stop  offset="1" style="stop-color:#FFFFFF"/>
		</linearGradient>
		<path style="fill-rule:evenodd;clip-rule:evenodd;fill:url(#SVGID_00000104668267343219906130000012985435958414202553_);" d="
			M4395.1,0c36.37,1160.76,601.5,1446.36,1448.21,782.99C6083.62,594.72,6332.72,326.87,6562.55,0h92.82
			c-245.92,361.21-515.9,656.03-775.77,859.63C5003.229,1546.24,4357.709,1250.1,4324.47,0H4395.1L4395.1,0z"/>
	</g>
</g>
</svg>
